# xmcd CD database file
#
# Track frame offsets:
#	182
#	12885
#	25775
#	35692
#	50520
#	64207
#	74000
#	85025
#	95657
#	109470
#	126557
#	136500
#	151907
#	164305
#	173742
#	178945
#	193457
#	205050
#	221390
#
# Disc length: 3118 seconds
#
# Revision: 10
# Processed by: cddbd v1.5.2PL0 Copyright (c) Steve Scherf et al.
# Submitted via: CDex 1.70beta2
#
DISCID=160c2c13
DTITLE=GREEN DAY - nimrod
DYEAR=1997
DGENRE=Punk Rock
TTITLE0=Nice Guys Finish Last
TTITLE1=Hitchin' A Ride
TTITLE2=The Grouch
TTITLE3=Redundant
TTITLE4=Scattered
TTITLE5=All The Time
TTITLE6=Worry Rock
TTITLE7=Platypus(I Hate You)
TTITLE8=Uptight
TTITLE9=Last Ride In
TTITLE10=Jinx
TTITLE11=Haushinka
TTITLE12=Walking Alone
TTITLE13=Reject
TTITLE14=Take Back
TTITLE15=King For A Day
TTITLE16=Good Riddance (Time Of Your Life)
TTITLE17=Prosthetic Head
TTITLE18=Desensitized [Bonus Track]
EXTD=YEAR: 1997
EXTT0=
EXTT1=
EXTT2=
EXTT3=
EXTT4=
EXTT5=
EXTT6=
EXTT7=
EXTT8=
EXTT9=
EXTT10=
EXTT11=
EXTT12=
EXTT13=
EXTT14=
EXTT15=
EXTT16=
EXTT17=
EXTT18=
PLAYORDER=
